# This file uses centimeters as units for non-parametric coordinates.

mtllib concrete-beam.mtl
g default
v -0.110738 0.001601 0.125468
v -0.106118 -0.000312 0.125468
v -0.106118 0.001601 0.130088
v -0.106118 0.006221 0.132001
v -0.110738 0.006221 0.130088
v -0.112651 0.006221 0.125468
v 0.110738 0.001601 0.125468
v 0.112651 0.006221 0.125468
v 0.110738 0.006221 0.130088
v 0.106118 0.006221 0.132001
v 0.106118 0.001601 0.130088
v 0.106118 -0.000312 0.125468
v -0.110738 0.757978 0.125468
v -0.112651 0.753359 0.125468
v -0.110738 0.753359 0.130088
v -0.106118 0.753359 0.132001
v -0.106118 0.757978 0.130088
v -0.106118 0.759892 0.125468
v 0.110738 0.757978 0.125468
v 0.106118 0.759892 0.125468
v 0.106118 0.757978 0.130088
v 0.106118 0.753359 0.132001
v 0.110738 0.753359 0.130088
v 0.112651 0.753359 0.125468
v -0.110738 0.757978 -0.125468
v -0.106118 0.759892 -0.125468
v -0.106118 0.757978 -0.130088
v -0.106118 0.753359 -0.132001
v -0.110738 0.753359 -0.130088
v -0.112651 0.753359 -0.125468
v 0.110738 0.753359 -0.130088
v 0.106118 0.753359 -0.132001
v 0.106118 0.757978 -0.130088
v 0.106118 0.759892 -0.125468
v 0.110738 0.757978 -0.125468
v 0.112651 0.753359 -0.125468
v -0.110738 0.001601 -0.125468
v -0.112651 0.006221 -0.125468
v -0.110738 0.006221 -0.130088
v -0.106118 0.006221 -0.132001
v -0.106118 0.001601 -0.130088
v -0.106118 -0.000312 -0.125468
v 0.110738 0.001601 -0.125468
v 0.106118 -0.000312 -0.125468
v 0.106118 0.001601 -0.130088
v 0.106118 0.006221 -0.132001
v 0.110738 0.006221 -0.130088
v 0.112651 0.006221 -0.125468
v -0.106118 0.759892 -0.000000
v -0.110738 0.757978 -0.000000
v -0.112651 0.753359 0.000000
v -0.106118 -0.000312 0.000000
v -0.110738 0.001601 0.000000
v -0.112651 0.006221 0.000000
v -0.109889 0.002450 0.129239
v 0.109889 0.002450 0.129239
v -0.109889 0.757129 0.129239
v 0.109889 0.757129 0.129239
v -0.109889 0.757129 -0.129239
v 0.109889 0.757129 -0.129239
v -0.109889 0.002450 -0.129239
v 0.109889 0.002450 -0.129239
vt 0.371233 1.038419
vt 0.123544 0.008443
vt 0.999886 0.009042
vt 0.999753 0.003965
vt 0.120920 0.013717
vt 0.000000 0.014086
vt 0.130497 0.013696
vt 0.129200 0.008401
vt 0.371885 0.008931
vt 0.370039 0.014121
vt 0.371273 0.800664
vt 0.125444 0.013714
vt 0.125429 0.787057
vt 0.120903 0.787054
vt 0.130484 0.787075
vt 0.379194 0.014126
vt 0.377228 0.008926
vt 0.622710 0.008891
vt 0.620755 0.014095
vt 0.131373 0.800623
vt 0.374871 0.014131
vt 0.374869 0.786666
vt 0.370036 0.786676
vt 0.379193 0.786670
vt 0.127489 0.797746
vt 0.129202 0.792362
vt 0.371895 0.791870
vt 0.374360 0.797155
vt 0.377238 0.791874
vt 0.622688 0.791830
vt 0.625586 0.797108
vt 0.620723 0.786630
vt 0.871093 0.799046
vt 0.876333 0.792311
vt 0.000433 0.791800
vt 0.871105 0.918996
vt 0.878961 0.787047
vt 0.999550 0.786764
vt 0.869384 0.787065
vt 0.870677 0.792352
vt 0.628031 0.791825
vt 0.629876 0.786635
vt 0.874437 0.787049
vt 0.874554 0.013711
vt 0.879080 0.013716
vt 0.869499 0.013692
vt 0.625046 0.786625
vt 0.625079 0.014099
vt 0.629912 0.014089
vt 0.872502 0.003007
vt 0.870785 0.008397
vt 0.628053 0.008895
vt 0.123538 0.792321
vt 0.876449 0.008440
vt 0.125953 0.010181
vt 0.374706 0.010663
vt 0.125945 0.790583
vt 0.374710 0.790144
vt 0.873926 0.790573
vt 0.625210 0.790094
vt 0.874041 0.010176
vt 0.625238 0.010624
vt 0.625588 0.003609
vt 0.131332 1.038378
vt 0.251283 1.038399
vt 0.872405 0.797735
vt 0.633337 0.799071
vt 0.000575 0.796865
vt 0.633363 1.038972
vt 0.871118 1.038947
vt 0.374330 0.003646
vt 0.127468 0.003012
vt 0.000314 0.786724
vt 1.000000 0.014129
vt 0.999425 0.791843
vt 0.999265 0.796908
vt 0.000120 0.008996
vt 0.000270 0.003919
vn -0.004490 -0.999962 0.007517
vn -0.381712 -0.924242 0.008588
vn -0.382684 -0.923879 0.000000
vn -0.004459 -0.999990 0.000000
vn -0.924295 -0.381548 0.010005
vn -0.999889 -0.002510 0.014673
vn -0.999997 -0.002545 0.000000
vn -0.923879 -0.382684 0.000000
vn -0.008804 -0.002526 0.999958
vn -0.005847 -0.382017 0.924137
vn 0.005847 -0.382017 0.924137
vn 0.008804 -0.002526 0.999958
vn -0.005376 -0.924116 0.382073
vn 0.008775 -0.999934 0.007439
vn 0.005376 -0.924116 0.382073
vn -0.923953 -0.001579 0.382503
vn -0.923953 0.001579 0.382503
vn -0.999889 0.002510 0.014673
vn -0.382513 -0.001457 0.923949
vn -0.008804 0.002526 0.999958
vn -0.382513 0.001457 0.923949
vn 0.999969 -0.002527 0.007470
vn 0.924102 -0.382113 0.005076
vn 0.924102 -0.382113 -0.005076
vn 0.999969 -0.002527 -0.007470
vn 0.382196 -0.924071 0.004348
vn 0.008775 -0.999934 -0.007439
vn 0.382196 -0.924071 -0.004348
vn 0.382513 -0.001457 0.923949
vn 0.382513 0.001457 0.923949
vn 0.008804 0.002526 0.999958
vn 0.923953 -0.001579 0.382503
vn 0.999969 0.002527 0.007470
vn 0.923953 0.001579 0.382503
vn -0.004490 0.999962 0.007517
vn -0.005376 0.924114 0.382080
vn 0.005376 0.924114 0.382080
vn 0.008775 0.999934 0.007439
vn -0.005847 0.382017 0.924137
vn 0.005847 0.382017 0.924137
vn 0.382196 0.924071 0.004348
vn 0.382196 0.924071 -0.004348
vn 0.008775 0.999934 -0.007439
vn 0.924101 0.382114 0.005076
vn 0.999969 0.002527 -0.007470
vn 0.924101 0.382114 -0.005076
vn -0.004490 0.999962 -0.007517
vn -0.381712 0.924241 -0.008588
vn -0.382684 0.923879 0.000000
vn -0.004459 0.999990 0.000000
vn -0.924294 0.381549 -0.010005
vn -0.999889 0.002510 -0.014673
vn -0.999997 0.002545 0.000000
vn -0.923879 0.382685 0.000000
vn -0.008804 0.002526 -0.999958
vn -0.005847 0.382017 -0.924137
vn 0.005847 0.382017 -0.924137
vn 0.008804 0.002526 -0.999958
vn -0.005376 0.924114 -0.382080
vn 0.005376 0.924114 -0.382080
vn -0.923953 0.001579 -0.382503
vn -0.923953 -0.001579 -0.382503
vn -0.999889 -0.002510 -0.014673
vn -0.382513 0.001457 -0.923949
vn -0.008804 -0.002526 -0.999958
vn -0.382513 -0.001457 -0.923949
vn 0.382513 0.001457 -0.923949
vn 0.382513 -0.001457 -0.923949
vn 0.008804 -0.002526 -0.999958
vn 0.923953 0.001579 -0.382503
vn 0.923953 -0.001579 -0.382503
vn -0.004490 -0.999962 -0.007517
vn -0.005376 -0.924116 -0.382073
vn 0.005376 -0.924116 -0.382073
vn -0.005847 -0.382017 -0.924137
vn 0.005847 -0.382017 -0.924137
vn -0.924294 0.381549 0.010005
vn -0.381712 0.924241 0.008588
vn -0.924295 -0.381548 -0.010005
vn -0.381712 -0.924242 -0.008588
vn -0.887919 -0.325271 0.325267
vn -0.325271 -0.887920 0.325263
vn -0.325271 -0.325269 0.887919
vn 0.325271 -0.887920 0.325264
vn 0.887919 -0.325271 0.325267
vn 0.325271 -0.325269 0.887918
vn -0.325275 0.887918 0.325267
vn -0.887919 0.325272 0.325267
vn -0.325269 0.325271 0.887918
vn 0.887918 0.325272 0.325267
vn 0.325275 0.887917 0.325269
vn 0.325269 0.325270 0.887919
vn -0.887918 0.325272 -0.325267
vn -0.325275 0.887917 -0.325269
vn -0.325269 0.325270 -0.887919
vn 0.887919 0.325272 -0.325267
vn 0.325269 0.325271 -0.887918
vn 0.325275 0.887918 -0.325267
vn -0.325271 -0.887920 -0.325264
vn -0.887919 -0.325271 -0.325267
vn -0.325271 -0.325269 -0.887918
vn 0.887919 -0.325271 -0.325267
vn 0.325271 -0.887920 -0.325263
vn 0.325271 -0.325269 -0.887919
s 1
g Concrete_block
usemtl initialShadingGroup
f 2/72/1 1/2/2 53/77/3 52/78/4
s 2
f 1/2/5 6/5/6 54/6/7 53/77/8
s 3
f 4/7/9 3/8/10 11/9/11 10/10/12
s 1
f 3/8/13 2/72/1 12/71/14 11/9/15
s 2
f 6/5/6 5/12/16 15/13/17 14/14/18
s 3
f 5/12/19 4/7/9 16/15/20 15/13/21
s 4
f 8/16/22 7/17/23 43/18/24 48/19/25
s 1
f 7/17/26 12/71/14 44/63/27 43/18/28
s 3
f 10/10/12 9/21/29 23/22/30 22/23/31
s 4
f 9/21/32 8/16/22 24/24/33 23/22/34
s 5
f 18/25/35 17/26/36 21/27/37 20/28/38
s 3
f 17/26/39 16/15/20 22/23/31 21/27/40
s 5
f 20/28/38 19/29/41 35/30/42 34/31/43
s 4
f 19/29/44 24/24/33 36/32/45 35/30/46
s 5
f 26/66/47 25/34/48 50/75/49 49/76/50
s 2
f 25/34/51 30/37/52 51/38/53 50/75/54
s 8
f 28/39/55 27/40/56 33/41/57 32/42/58
s 5
f 27/40/59 26/66/47 34/31/43 33/41/60
s 2
f 30/37/52 29/43/61 39/44/62 38/45/63
s 8
f 29/43/64 28/39/55 40/46/65 39/44/66
f 32/42/58 31/47/67 47/48/68 46/49/69
s 4
f 31/47/70 36/32/45 48/19/25 47/48/71
s 1
f 42/50/72 41/51/73 45/52/74 44/63/27
s 8
f 41/51/75 40/46/65 46/49/69 45/52/76
s 3
f 4/7/9 10/10/12 22/23/31 16/15/20
s 5
f 18/70/35 20/69/38 34/67/43 26/33/47 49/36/50
s 8
f 28/39/55 32/42/58 46/49/69 40/46/65
s 1
f 42/64/72 44/20/27 12/11/14 2/1/1 52/65/4
s 4
f 8/16/22 48/19/25 36/32/45 24/24/33
s 2
f 51/73/53 54/6/7 6/5/6 14/14/18
f 38/45/63 54/74/7 51/38/53 30/37/52
f 14/14/18 13/53/77 50/35/54 51/73/53
s 5
f 13/53/78 18/25/35 49/68/50 50/35/49
s 2
f 38/45/63 37/54/79 53/3/8 54/74/7
s 1
f 37/54/80 42/50/72 52/4/4 53/3/3
s 2
f 5/12/16 6/5/6 1/2/5 55/55/81
s 1
f 1/2/2 2/72/1 3/8/13 55/55/82
s 3
f 3/8/10 4/7/9 5/12/19 55/55/83
s 1
f 11/9/15 12/71/14 7/17/26 56/56/84
s 4
f 7/17/23 8/16/22 9/21/32 56/56/85
s 3
f 9/21/29 10/10/12 11/9/11 56/56/86
s 5
f 17/26/36 18/25/35 13/53/78 57/57/87
s 2
f 13/53/77 14/14/18 15/13/17 57/57/88
s 3
f 15/13/21 16/15/20 17/26/39 57/57/89
s 4
f 23/22/34 24/24/33 19/29/44 58/58/90
s 5
f 19/29/41 20/28/38 21/27/37 58/58/91
s 3
f 21/27/40 22/23/31 23/22/30 58/58/92
s 2
f 29/43/61 30/37/52 25/34/51 59/59/93
s 5
f 25/34/48 26/66/47 27/40/59 59/59/94
s 8
f 27/40/56 28/39/55 29/43/64 59/59/95
s 4
f 35/30/46 36/32/45 31/47/70 60/60/96
s 8
f 31/47/67 32/42/58 33/41/57 60/60/97
s 5
f 33/41/60 34/31/43 35/30/42 60/60/98
s 1
f 41/51/73 42/50/72 37/54/80 61/61/99
s 2
f 37/54/79 38/45/63 39/44/62 61/61/100
s 8
f 39/44/66 40/46/65 41/51/75 61/61/101
s 4
f 47/48/71 48/19/25 43/18/24 62/62/102
s 1
f 43/18/28 44/63/27 45/52/74 62/62/103
s 8
f 45/52/76 46/49/69 47/48/68 62/62/104
